<svg width="32" height="32" viewBox="0 0 32 32" fill="none" xmlns="http://www.w3.org/2000/svg">
<path d="M27.8852 17.795C29.0923 17.7021 30.0673 18.4914 30.1601 19.6985C30.253 20.952 29.3709 21.9734 28.1638 22.0662C27.0031 22.1591 25.9817 21.277 25.8889 20.1163C25.796 18.8628 26.6317 17.9343 27.8852 17.795Z" fill="#86DA2F"/>
<path d="M13.2144 27.684C13.2144 26.4769 14.1429 25.5483 15.2571 25.5483C16.3714 25.5483 17.4392 26.5697 17.4392 27.7304C17.4392 28.8446 16.5106 29.8196 15.4428 29.866C14.0965 29.866 13.2144 29.0303 13.2144 27.684V27.684Z" fill="#24C2FF"/>
<path d="M16.5104 14.1273C16.3247 14.2201 16.2319 14.0809 16.1855 13.9416C14.4677 10.7381 14.9784 6.69903 17.9961 4.28484C18.7853 3.63487 20.271 3.49559 20.921 4.14556C21.1995 4.37769 21.246 4.65625 21.2924 4.98124C21.3852 5.67764 21.5245 6.37404 21.9888 6.93116C22.4995 7.5347 23.1495 7.76684 23.8923 7.72041C24.5423 7.72041 25.1922 7.62756 25.6101 8.37038C25.8422 8.78822 25.7493 10.4132 25.3779 10.7381C25.1922 10.8774 25.0529 10.7846 24.9137 10.7381C23.8459 10.3203 22.7316 10.3203 21.6174 10.506C21.246 10.5524 21.0603 10.4596 21.0603 10.0417C21.0138 9.34534 20.8745 8.69537 20.5031 8.09182C19.8067 6.83831 18.5068 6.79188 17.6711 7.95254C16.9747 8.88108 16.789 9.99532 16.6033 11.1096C16.4176 12.0845 16.464 13.1059 16.5104 14.1273C16.5104 14.1273 16.464 14.1273 16.5104 14.1273V14.1273Z" fill="#FFCB12"/>
<path d="M17.6711 14.8238C17.5783 14.6845 17.6247 14.5452 17.764 14.4523C20.4103 12.0382 24.3565 11.5739 27.4207 13.9417C28.21 14.5916 28.7206 15.938 28.3028 16.7273C28.1171 17.0522 27.885 17.1915 27.6064 17.2844C26.9564 17.5629 26.3529 17.8415 25.935 18.445C25.5172 19.0486 25.4244 19.745 25.6101 20.4878C25.7493 21.0914 25.9815 21.7413 25.3779 22.2984C25.0529 22.6234 23.4744 22.902 23.0566 22.6234C22.8709 22.4842 22.9173 22.3449 22.9637 22.1592C23.103 20.9985 22.8245 19.9307 22.4066 18.9093C22.2673 18.5379 22.3138 18.3522 22.6852 18.2593C23.3352 18.0736 23.9387 17.7486 24.403 17.2844C25.4244 16.3094 25.1922 15.0559 23.8458 14.4988C22.778 14.0345 21.6638 14.1274 20.596 14.2202C19.5746 14.2666 18.5996 14.5452 17.6711 14.8238Z" fill="#86DA2F"/>
<path d="M17.0675 16.0308C17.2067 15.8915 17.2996 15.9379 17.4389 16.0308C20.503 17.8878 22.0815 21.5555 20.6887 25.1304C20.3173 26.0589 19.1102 26.9875 18.2281 26.7553C17.8567 26.6625 17.671 26.4768 17.4853 26.2446C17.0675 25.6875 16.6032 25.1768 15.9068 24.9447C15.164 24.7126 14.514 24.8518 13.864 25.2232C13.3069 25.5482 12.7498 25.9661 12.0534 25.5482C11.6355 25.3161 10.9391 23.8769 11.0784 23.4126C11.1713 23.2269 11.357 23.2269 11.5427 23.2269C12.7033 23.0412 13.6319 22.4841 14.514 21.7412C14.7925 21.5091 15.0247 21.5091 15.2568 21.8341C15.6282 22.3912 16.0925 22.8555 16.696 23.1805C17.9031 23.8769 19.0638 23.2733 19.2031 21.8805C19.3424 20.7199 18.9245 19.6985 18.5531 18.6771C18.1353 17.7486 17.6246 16.8665 17.0675 16.0308V16.0308Z" fill="#24C2FF"/>
<path d="M15.582 16.3095C15.3963 17.238 14.9785 18.1201 14.4213 18.9093C12.75 21.4164 10.3358 22.4378 7.3645 22.1592C6.29669 22.0664 5.41458 21.1842 5.32173 20.3021C5.2753 19.9307 5.36816 19.6522 5.60029 19.3736C5.92528 18.9558 6.20384 18.5844 6.34311 18.0737C6.62167 17.0523 6.25026 16.2166 5.50744 15.4738C4.48605 14.4524 4.62533 13.5239 5.83242 12.781C5.9717 12.6882 6.15741 12.5953 6.34311 12.5025C6.62167 12.3632 6.85381 12.3632 6.94666 12.6882C7.3645 13.756 8.20018 14.5452 9.12871 15.1952C9.4537 15.4738 9.4537 15.6595 9.17514 15.9845C8.61802 16.588 8.29303 17.3308 8.24661 18.1665C8.15375 19.1879 8.7573 19.8379 9.77868 19.8379C10.4287 19.8379 11.0322 19.6057 11.5893 19.3272C13.0285 18.5844 14.1428 17.5165 15.2106 16.4023C15.3499 16.3559 15.3963 16.263 15.582 16.3095Z" fill="#0069DA"/>
<path d="M7.96808 6.55979C8.06093 6.55979 8.29307 6.60622 8.5252 6.65265C10.243 6.97763 11.3108 6.37409 11.8679 4.74916C12.2393 3.68134 13.0286 3.35636 14.05 3.91348C14.0964 3.91348 14.0964 3.9599 14.1428 3.9599C15.2106 4.56345 15.2106 4.6563 14.5607 5.58484C14.0035 6.32766 13.725 7.16334 13.5857 8.04545C13.4928 8.55614 13.3071 8.64899 12.8429 8.46329C12.1 8.18473 11.3108 8.18473 10.5215 8.46329C9.63944 8.74185 9.26803 9.5311 9.54659 10.4132C9.918 11.5739 10.9394 12.0846 11.8215 12.6881C12.7036 13.2917 13.725 13.6166 14.6999 14.0345C14.8392 14.0809 15.0714 14.0809 15.0249 14.313C14.9785 14.4523 14.7928 14.4523 14.6071 14.4523C12.5179 14.5452 10.5215 14.2202 8.89661 12.8274C7.36453 11.5739 6.2503 10.0418 6.436 7.90617C6.57528 7.20977 7.08598 6.69907 7.96808 6.55979Z" fill="#FF4649"/>
<path d="M4.161 19.6058C3.04676 19.7451 1.93252 18.8165 1.83967 17.6559C1.74682 16.5416 2.67535 15.4274 3.74316 15.3345C4.95025 15.1952 6.06449 16.0309 6.15734 17.1452C6.20377 18.213 5.50737 19.5129 4.161 19.6058V19.6058Z" fill="#0069DA"/>
<path d="M23.6601 3.07818C24.8207 2.98533 25.935 3.91386 26.0278 5.07453C26.1207 6.18877 25.1922 7.25658 24.0779 7.34943C22.8708 7.44229 21.803 6.56018 21.7102 5.39952C21.6173 4.23885 22.453 3.17104 23.6601 3.07818V3.07818Z" fill="#FFCB12"/>
<path d="M11.5428 3.95992C11.6821 5.16702 10.8464 6.1884 9.59289 6.37411C8.52508 6.51339 7.41084 5.63128 7.27156 4.6099C7.13228 3.26353 7.87511 2.28857 9.12863 2.14929C10.2893 2.01001 11.4035 2.89211 11.5428 3.95992V3.95992Z" fill="#FF4649"/>
</svg>
