<svg width="32" height="32" viewBox="0 0 32 32" fill="none" xmlns="http://www.w3.org/2000/svg">
<g clip-path="url(#clip0_1471_391)">
<path d="M16.0009 2C8.28009 2 2 8.28031 2 16C2 23.7201 8.27998 30 16.0009 30C23.7195 30 30 23.7201 30 16C30 8.28031 23.7195 2 16.0009 2Z" fill="#53A3DA"/>
<path d="M16.0628 3.23096C13.8333 3.23096 11.9425 6.79702 11.2595 11.7535C11.2377 11.9129 11.2166 12.0743 11.1979 12.2367C11.1024 13.0425 11.0396 13.8519 11.0097 14.6628C10.9946 15.0491 10.9871 15.4356 10.9873 15.8222C10.9873 16.213 10.9947 16.6 11.0098 16.9813C11.0414 17.8161 11.1047 18.6278 11.198 19.4078C12.2433 19.5431 13.3611 19.6349 14.5269 19.6786C15.0309 19.6974 15.5424 19.7086 16.0629 19.7086C16.5818 19.7086 17.0948 19.6973 17.5973 19.6786C18.7646 19.6349 19.8815 19.5431 20.9278 19.4078C21.0429 19.3931 21.1562 19.377 21.2708 19.3604C25.6249 18.749 28.6539 17.3955 28.6539 15.8222C28.6538 8.86793 23.016 3.23096 16.0628 3.23096Z" fill="#F1606D"/>
<path d="M21.2705 12.2837C21.1445 12.1 21.0089 11.9231 20.8644 11.7536C19.7092 10.3917 17.9882 9.52637 16.0627 9.52637C15.4385 9.52637 14.8826 10.4819 14.5268 11.9655C14.3854 12.5572 14.2757 13.2321 14.2049 13.9648C14.1472 14.5822 14.1185 15.202 14.1192 15.8221C14.1192 16.4681 14.1492 17.0926 14.2049 17.6791C14.7924 17.7349 15.4158 17.7648 16.0627 17.7648C16.7088 17.7648 17.3323 17.7348 17.9197 17.6791C19.2111 17.5566 20.326 17.3084 21.1157 16.9811C21.8955 16.6585 22.3571 16.2568 22.3571 15.8221C22.3569 14.5104 21.9564 13.2922 21.2705 12.2837Z" fill="white"/>
</g>
<defs>
<clipPath id="clip0_1471_391">
<rect width="28" height="28" fill="white" transform="translate(2 2)"/>
</clipPath>
</defs>
</svg>
