<svg width="32" height="32" viewBox="0 0 32 32" fill="none" xmlns="http://www.w3.org/2000/svg">
<path d="M18.3429 16.7833C17.8478 16.7902 18.4365 17.0384 19.0827 17.1378C19.251 17.0065 19.4128 16.8672 19.5676 16.7202C19.1651 16.8188 18.7555 16.8211 18.3429 16.7834V16.7833ZM20.9997 16.121C21.2945 15.7142 21.5094 15.2688 21.5852 14.8082C21.519 15.1365 21.3407 15.42 21.173 15.7191C20.2477 16.3017 21.086 15.3732 21.1724 15.0203C20.1775 16.2726 21.0357 15.7713 20.9997 16.1211V16.121ZM21.9803 13.5691C22.0402 12.6777 21.805 12.9595 21.7258 13.2998C21.8182 13.3476 21.8912 13.9281 21.9803 13.5692V13.5691ZM16.4658 1.38525C16.73 1.43267 17.0365 1.46897 16.9936 1.53203C17.2826 1.46868 17.3481 1.41033 16.4658 1.38525ZM16.9936 1.53203L16.8069 1.57069L16.9806 1.55523L16.9936 1.53203Z" fill="#A80030"/>
<path d="M25.2316 13.9071C25.261 14.7077 24.9974 15.0961 24.7596 15.7836L24.3318 15.9974C23.9817 16.6772 24.3658 16.4291 24.115 16.9698C23.5685 17.4557 22.4565 18.4904 22.1006 18.5849C21.8408 18.579 22.2766 18.2782 22.3337 18.1604C21.602 18.6628 21.7466 18.9145 20.6276 19.2198L20.5949 19.1471C17.8352 20.4453 14.0019 17.8726 14.0523 14.3619C14.0228 14.5848 13.9685 14.5291 13.9074 14.6193C13.765 12.813 14.7415 10.9988 16.3885 10.2581C17.9994 9.46057 19.8881 9.78788 21.042 10.8633C20.4081 10.033 19.1464 9.15287 17.6512 9.23526C16.1866 9.25836 14.8165 10.1893 14.3592 11.1996C13.6088 11.6721 13.5217 13.0207 13.1947 13.2675C12.7548 16.5006 14.0222 17.8975 16.1661 19.5407C16.5036 19.7683 16.2613 19.8028 16.307 19.9759C15.5946 19.6423 14.9423 19.1388 14.406 18.5223C14.6905 18.9389 14.9977 19.3438 15.3946 19.6619C14.723 19.4344 13.8259 18.0344 13.5639 17.9775C14.7216 20.0503 18.2611 21.6128 20.1144 20.8377C19.2569 20.8693 18.1674 20.8552 17.2039 20.4991C16.7992 20.2908 16.2489 19.8594 16.3471 19.7787C18.8764 20.7236 21.4893 20.4943 23.6779 18.7399C24.2346 18.3063 24.8429 17.5686 25.0186 17.5585C24.7539 17.9565 25.0638 17.7498 24.8605 18.1015C25.4153 17.2067 24.6195 17.7372 25.434 16.5564L25.7348 16.9706C25.623 16.2279 26.657 15.3261 26.5521 14.1515C26.7893 13.7923 26.8168 14.538 26.565 15.3644C26.9144 14.4476 26.657 14.3003 26.7469 13.5438C26.8439 13.7981 26.9711 14.0684 27.0364 14.3366C26.8088 13.4507 27.27 12.8447 27.3841 12.3298C27.2716 12.28 27.0328 12.7216 26.9782 11.6751C26.9862 11.2205 27.1047 11.4368 27.1504 11.325C27.0612 11.2737 26.8271 10.9253 26.6847 10.2569C26.7879 10.0999 26.9606 10.6641 27.1011 10.6872C27.0107 10.1558 26.8551 9.75064 26.8488 9.34292C26.4383 8.48515 26.7036 9.45727 26.3705 8.9747C25.9337 7.61192 26.7331 8.65842 26.7871 8.03915C27.4493 8.99864 27.8269 10.4856 28.0002 11.1015C27.868 10.3506 27.6542 9.62309 27.3934 8.91927C27.5945 9.00383 27.0695 7.37416 27.6548 8.45357C27.0295 6.15279 24.9786 4.00303 23.092 2.99433C23.3228 3.2055 23.6142 3.47087 23.5096 3.51244C22.5713 2.95379 22.7364 2.91024 22.602 2.67419C21.8375 2.36319 21.7874 2.69926 21.281 2.67475C19.8404 1.91059 19.5627 1.99185 18.2369 1.51314L18.2972 1.79501C17.3427 1.47704 17.1851 1.91559 16.1535 1.79596C16.0907 1.74694 16.4841 1.61863 16.8078 1.57159C15.8849 1.6932 15.9282 1.38965 15.0252 1.60515C15.2478 1.44895 15.4831 1.34562 15.7205 1.21289C14.968 1.25861 13.9239 1.65087 14.2461 1.29415C13.0187 1.84177 10.8387 2.61055 9.61533 3.75764L9.57668 3.50057C9.01624 4.17366 7.13223 5.51043 6.98215 6.38196L6.83225 6.41694C6.54058 6.91092 6.35185 7.4706 6.12051 7.97882C5.73899 8.62891 5.56129 8.22901 5.61559 8.33092C4.86519 9.85227 4.49244 11.1308 4.17041 12.1792C4.39996 12.5221 4.17597 14.2437 4.2628 15.6217C3.8859 22.4268 9.03877 29.0341 14.6713 30.5597C15.4968 30.8549 16.7245 30.8436 17.7689 30.874C16.5367 30.5216 16.3774 30.6872 15.1773 30.2687C14.3115 29.861 14.1217 29.3955 13.5085 28.8633L13.7512 29.2923C12.5485 28.8666 13.0517 28.7655 12.0734 28.4556L12.3326 28.1171C11.9428 28.0876 11.3001 27.46 11.1243 27.1127L10.6979 27.1295C10.1856 26.4973 9.91257 26.0416 9.93246 25.6889L9.79463 25.9342C9.63843 25.6662 7.90968 23.5633 8.80658 24.0529C8.6399 23.9005 8.41846 23.8049 8.17826 23.3686L8.36086 23.1598C7.92919 22.6045 7.56644 21.8927 7.59397 21.6555C7.82427 21.9665 7.98406 22.0245 8.14215 22.0778C7.05209 19.3732 6.99101 21.9288 6.16538 19.3247L6.34006 19.3107C6.2062 19.109 6.12494 18.89 6.01718 18.6753L6.09326 17.9176C5.30845 17.0103 5.87361 14.0595 5.98692 12.4411C6.06536 11.7831 6.64192 11.0825 7.08047 9.98396L6.81331 9.93796C7.32397 9.0471 9.7294 6.36018 10.8434 6.49848C11.383 5.82067 10.7362 6.49603 10.6307 6.32521C11.816 5.09856 12.1887 5.45858 12.9887 5.23798C13.8514 4.7259 12.2482 5.43765 12.6573 5.04265C14.1486 4.6617 13.7142 4.17658 15.6598 3.98323C15.8651 4.10004 15.1837 4.16367 15.0125 4.31516C16.2551 3.70721 18.9448 3.8455 20.6918 4.65265C22.719 5.59998 24.9965 8.4003 25.0864 11.0352L25.1886 11.0627C25.1367 12.1101 25.3488 13.3213 24.9814 14.4338L25.2316 13.9071Z" fill="#A80030"/>
<path d="M12.94 17.4629L12.8706 17.81C13.1958 18.2519 13.454 18.7306 13.8694 19.0761C13.5706 18.4925 13.3485 18.2516 12.94 17.4629ZM13.7091 17.4327C13.5369 17.2422 13.435 17.0131 13.321 16.7847C13.4301 17.186 13.6534 17.531 13.8615 17.8817L13.7091 17.4327ZM27.3182 14.4747L27.2455 14.657C27.1122 15.6041 26.8243 16.5412 26.383 17.41C26.8706 16.4932 27.1861 15.4907 27.3182 14.4747ZM16.5638 1.14801C16.8984 1.02536 17.3866 1.0807 17.7417 1C17.2788 1.03884 16.8183 1.06194 16.3634 1.12067L16.5638 1.14801ZM4.8137 7.396C4.89091 8.11001 4.27654 8.38717 4.94983 7.91638C5.3107 7.10348 4.8088 7.69192 4.8137 7.396ZM4.02257 10.7005C4.17765 10.2245 4.20574 9.93858 4.26504 9.66312C3.83639 10.211 4.06782 10.3277 4.02257 10.7005Z" fill="#A80030"/>
</svg>
