<svg width="32" height="32" viewBox="0 0 32 32" fill="none" xmlns="http://www.w3.org/2000/svg">
<path fill-rule="evenodd" clip-rule="evenodd" d="M2.60315 15.847C2.61664 8.36798 8.78782 2.31006 16.4098 2.31006L16.3976 2.32219C24.0263 2.32219 30.2042 8.38011 30.2042 15.8591C30.2042 23.3341 24.0344 29.3912 16.4111 29.3961H5.7393C4.00943 29.3961 2.6067 28.0222 2.60315 26.326H2.60059V15.847H2.60315ZM14.8977 11.5553C15.161 9.46946 17.0631 7.87988 19.2163 7.87988L19.2148 7.88388C21.5325 7.88388 23.7208 9.62461 23.7208 12.0259L23.7208 12.0494C23.7209 12.2644 23.7209 12.4803 23.685 12.724C23.6208 13.3628 23.0257 13.8219 22.3775 13.7319C21.7294 13.6407 21.2895 13.0372 21.4094 12.4056C21.4204 12.3335 21.4243 12.2203 21.4243 12.0257C21.4243 10.6639 20.2884 10.1382 19.2145 10.1382C18.1408 10.1382 17.1732 11.0237 17.1717 12.0257C17.1841 12.7979 17.18 13.5662 17.1759 14.3352C17.1738 14.72 17.1717 15.105 17.1717 15.4909L19.1646 15.4763C20.7205 15.4447 20.738 17.7428 19.1825 17.732L17.1722 17.7466C17.1694 18.2659 17.172 18.4435 17.174 18.5802C17.1756 18.6888 17.1768 18.7715 17.1747 18.9794C17.1747 18.9794 17.1916 20.1192 17.1569 20.9829C16.9164 23.5204 14.7137 25.5483 12.067 25.5483C9.26121 25.5483 6.9502 23.2993 6.9502 20.5407C7.03444 17.7039 9.34075 15.4725 12.2463 15.4981L13.867 15.4861V17.7378L12.2463 17.7524H12.2378C10.6414 17.7987 9.27284 18.8623 9.24722 20.5394C9.24722 22.067 10.5057 23.2912 12.0679 23.2912C13.6279 23.2912 14.8764 22.1779 14.8764 20.542L14.8739 12.014C14.8749 11.8557 14.88 11.7299 14.8977 11.5553Z" fill="#51A2DA"/>
</svg>
