<svg width="32" height="32" viewBox="0 0 32 32" fill="none" xmlns="http://www.w3.org/2000/svg">
<path d="M29.2886 3.65734C30.7305 5.09836 26.7333 11.4333 26.0575 12.1094C25.3819 12.7841 23.6655 12.1633 22.2244 10.7218C20.7825 9.28074 20.1614 7.564 20.8372 6.88822C21.5126 6.21222 27.8471 2.21536 29.2886 3.65724V3.65734ZM9.06971 5.18205C6.86847 3.93316 3.73623 2.54381 2.7399 3.54035C1.73033 4.54949 3.17049 7.75219 4.43261 9.95738C5.55675 8.00445 7.15064 6.36305 9.06971 5.18205Z" fill="#B5010F"/>
<path d="M27.0896 11.6125C27.2923 12.2999 27.2559 12.8678 26.9271 13.1959C26.1593 13.964 24.0852 13.1464 22.2155 11.367C22.0831 11.2486 21.954 11.1266 21.8284 11.001C21.1523 10.3247 20.6262 9.60486 20.2898 8.94188C19.6349 7.76707 19.4711 6.72954 19.966 6.23447C20.2358 5.96505 20.6673 5.89161 21.1938 5.98629C21.5371 5.76917 21.9424 5.5273 22.3867 5.27955C20.5797 4.33701 18.5252 3.80469 16.3459 3.80469C9.11737 3.80469 3.25732 9.66378 3.25732 16.8929C3.25732 24.1208 9.11748 29.9806 16.3459 29.9806C23.5745 29.9806 29.4342 24.1208 29.4342 16.8929C29.4342 14.5585 28.8215 12.3695 27.7512 10.4717C27.5199 10.8939 27.295 11.2806 27.0896 11.6125Z" fill="#B5010F"/>
</svg>
