<svg width="32" height="32" viewBox="0 0 32 32" fill="none" xmlns="http://www.w3.org/2000/svg">
<g clip-path="url(#clip0_1471_351)">
<path d="M3.1258 18.9268C4.85213 18.9268 6.2516 17.6175 6.2516 16.0025C6.2516 14.3874 4.85213 13.0781 3.1258 13.0781C1.39947 13.0781 0 14.3874 0 16.0025C0 17.6175 1.39947 18.9268 3.1258 18.9268Z" fill="#FF6309"/>
<path d="M24.9945 31.1365C26.7208 31.1365 28.1202 29.8272 28.1202 28.212C28.1202 26.5969 26.7208 25.2876 24.9945 25.2876C23.2681 25.2876 21.8687 26.5969 21.8687 28.212C21.8687 29.8272 23.2681 31.1365 24.9945 31.1365Z" fill="#FFB515"/>
<path d="M17.7049 8.70312C21.5024 8.70312 24.6534 11.4306 25.1751 14.9667H30.4003C30.163 12.1882 28.972 9.59839 26.9808 7.55588C25.7056 8.18408 24.1375 8.1961 22.8055 7.45244C21.4724 6.70791 20.6989 5.38743 20.6248 4.00366C19.6665 3.78784 18.6873 3.67918 17.705 3.67969C15.7984 3.67969 13.956 4.08228 12.2803 4.84557L14.8962 9.22822C15.7916 8.88013 16.7441 8.70206 17.7049 8.70312Z" fill="#FF6309"/>
<path d="M25.1749 17.0352C24.6544 20.5726 21.503 23.3017 17.7043 23.3017C16.7117 23.3017 15.7634 23.1149 14.8947 22.7759L12.2783 27.1589C13.9536 27.9226 15.7968 28.3254 17.7041 28.3254C18.7004 28.3254 19.6795 28.2142 20.6262 28.0008C20.699 26.6155 21.4729 25.2927 22.8068 24.5478C24.1393 23.8035 25.708 23.8156 26.9835 24.4451C28.9731 22.4024 30.1628 19.8127 30.3994 17.0352H25.1749Z" fill="#C90016"/>
<path d="M10.1581 16.0023C10.1581 13.6767 11.2883 11.6019 13.0449 10.2643L10.4296 5.88232C9.81182 6.29978 9.23155 6.77028 8.69542 7.28847C7.18185 8.7524 6.09647 10.5201 5.49913 12.4493C6.70251 13.2033 7.49932 14.5121 7.49932 16.0023C7.49932 17.4922 6.7024 18.8013 5.49902 19.555C6.09636 21.4843 7.18174 23.2518 8.69531 24.7159C9.23101 25.2339 9.81079 25.7042 10.4281 26.1216L13.0438 21.7393C11.2876 20.4019 10.1581 18.3271 10.1581 16.0023Z" fill="#FFB515"/>
<path d="M24.9919 6.7124C26.7181 6.7124 28.1175 5.40303 28.1175 3.78784C28.1175 2.17265 26.7181 0.863281 24.9919 0.863281C23.2656 0.863281 21.8662 2.17265 21.8662 3.78784C21.8662 5.40303 23.2656 6.7124 24.9919 6.7124Z" fill="#C90016"/>
</g>
<defs>
<clipPath id="clip0_1471_351">
<rect width="30.4" height="30.2784" fill="white" transform="translate(0 0.86084)"/>
</clipPath>
</defs>
</svg>
